<?xml version="1.0" encoding="utf-8"?><svg xml:space="preserve" viewBox="0 0 100 100" y="0" x="0" xmlns="http://www.w3.org/2000/svg" id="圖層_1" version="1.1" width="163px" height="163px" xmlns:xlink="http://www.w3.org/1999/xlink" style="width:100%;height:100%;background-size:initial;background-repeat-y:initial;background-repeat-x:initial;background-position-y:initial;background-position-x:initial;background-origin:initial;background-color:initial;background-clip:initial;background-attachment:initial;animation-play-state:paused" ><g class="ldl-scale" style="transform-origin:50% 50%;transform:rotate(0deg) scale(0.86, 0.86);animation-play-state:paused" ><path fill="#d1d1d1" d="M55.523 95c-1.233 0-2.305-.33-3.184-.981-1.125-.832-1.648-2.014-1.865-3.156-1.2 1.423-2.878 2.259-4.773 2.259-1.808 0-3.606-.804-5.062-2.264-2.18-2.186-4.137-4.543-6.028-6.821a223.835 223.835 0 0 0-2.362-2.813 3.829 3.829 0 0 1-.565-.873l-.221-.47c-3.786-8.056-7.362-15.664-6.382-25.063.753-7.22-.36-13.739-2.978-17.44-4.817-6.809-7.082-12.722-3.496-21.152 2.568-6.035 7.409-9.444 13.633-9.599.243-.006.486-.009.729-.009 3.545 0 7.036.626 10.279 1.303a9.771 9.771 0 0 0 2.023.209c.996 0 2.073-.145 3.39-.455l1.128-.267c4.167-.989 8.475-2.012 12.92-2.337A25.875 25.875 0 0 1 64.616 5c7.449 0 13.581 3.161 16.403 8.457 3.292 6.175 2.778 12.985-1.57 20.819-3.754 6.762-3.379 10.846-2.327 18.07 1.441 9.893-1.033 19.909-7.785 31.521-1.464 2.518-3.386 4.559-5.247 6.533-.607.645-1.181 1.253-1.73 1.87-.969 1.085-2.421 1.922-3.989 2.299l-.056.012c-.734.177-1.74.419-2.792.419z" style="fill:rgb(30, 21, 197);animation-play-state:paused" ></path>
<path fill="#454545" d="M77.613 15.015c-2.71-5.086-9.001-6.765-14.623-6.353-4.521.33-8.278 3.698-12.716 4.745-2.398.566-4.626.782-7.088.268-3.321-.693-7.484-3.532-10.852-3.448-4.811.12-8.234 2.682-10.177 7.252-2.958 6.953-1.051 11.552 3.095 17.413 3.694 5.222 4.374 13.284 3.667 20.069-.886 8.498 2.543 15.583 6.258 23.491 2.713 3.16 5.262 6.482 8.194 9.423 2.105 2.111 4.539 1.134 5.052-1.842.259-1.497.194-3.105-.024-4.62-.352-2.452-5.508-18.086-5.908-20.533-.514-3.152-.842-7.5.772-11.136 2.766-6.232 13.025-4.326 14.216-.056 1.544 5.532.849 13.358.322 16.21-.832 4.497-2.439 17.571-3.484 22.036-.206.881-.196 2.346.318 2.726.603.445 1.896.124 2.832-.1.726-.174 1.526-.57 2.014-1.116 2.254-2.528 4.846-4.89 6.521-7.773 5.303-9.12 8.798-18.757 7.302-29.025-1.1-7.544-1.574-12.671 2.772-20.499 3.402-6.132 4.389-11.782 1.537-17.132zM61.9 31.787l-4.1 7.496-4.1-7.496-7.496-4.1 7.496-4.1 4.1-7.496 4.1 7.496 7.496 4.1-7.496 4.1z" style="fill:rgb(255, 255, 255);animation-play-state:paused" ></path>
<metadata xmlns:d="https://loading.io/stock/" style="animation-play-state:paused" ><d:name style="animation-play-state:paused" >dentist</d:name>
<d:tags style="animation-play-state:paused" >teeth,hospital,doctor,dentist,map</d:tags>
<d:license style="animation-play-state:paused" >free</d:license>
<d:slug style="animation-play-state:paused" >azxnqb</d:slug></metadata></g><!-- generated by https://loading.io/ --></svg>