<?xml version="1.0" standalone="no"?><svg xmlns="http://www.w3.org/2000/svg" viewBox="0 0 1440 320"><path fill="#1E15C5" fill-opacity="1" d="M0,128L40,149.3C80,171,160,213,240,213.3C320,213,400,171,480,176C560,181,640,235,720,218.7C800,203,880,117,960,90.7C1040,64,1120,96,1200,128C1280,160,1360,192,1400,208L1440,224L1440,320L1400,320C1360,320,1280,320,1200,320C1120,320,1040,320,960,320C880,320,800,320,720,320C640,320,560,320,480,320C400,320,320,320,240,320C160,320,80,320,40,320L0,320Z"></path></svg>