<?xml version="1.0" standalone="no"?><svg xmlns="http://www.w3.org/2000/svg" viewBox="0 0 1440 320"><path fill="#1E15C5" fill-opacity="1" d="M0,64L24,64C48,64,96,64,144,58.7C192,53,240,43,288,32C336,21,384,11,432,42.7C480,75,528,149,576,154.7C624,160,672,96,720,96C768,96,816,160,864,197.3C912,235,960,245,1008,229.3C1056,213,1104,171,1152,181.3C1200,192,1248,256,1296,282.7C1344,309,1392,299,1416,293.3L1440,288L1440,320L1416,320C1392,320,1344,320,1296,320C1248,320,1200,320,1152,320C1104,320,1056,320,1008,320C960,320,912,320,864,320C816,320,768,320,720,320C672,320,624,320,576,320C528,320,480,320,432,320C384,320,336,320,288,320C240,320,192,320,144,320C96,320,48,320,24,320L0,320Z"></path></svg>