<?xml version="1.0" standalone="no"?><svg xmlns="http://www.w3.org/2000/svg" viewBox="0 0 1440 320"><path fill="#059dbe" fill-opacity="1" d="M0,64L30,58.7C60,53,120,43,180,53.3C240,64,300,96,360,106.7C420,117,480,107,540,90.7C600,75,660,53,720,64C780,75,840,117,900,138.7C960,160,1020,160,1080,149.3C1140,139,1200,117,1260,128C1320,139,1380,181,1410,202.7L1440,224L1440,0L1410,0C1380,0,1320,0,1260,0C1200,0,1140,0,1080,0C1020,0,960,0,900,0C840,0,780,0,720,0C660,0,600,0,540,0C480,0,420,0,360,0C300,0,240,0,180,0C120,0,60,0,30,0L0,0Z"></path></svg>